<?xml version="1.0" encoding="utf-8"?>
<!-- Generator: Adobe Illustrator 22.1.0, SVG Export Plug-In . SVG Version: 6.00 Build 0)  -->
<svg version="1.1" id="Layer_1" xmlns="http://www.w3.org/2000/svg" xmlns:xlink="http://www.w3.org/1999/xlink" x="0px" y="0px"
	 viewBox="0 0 88 30" style="enable-background:new 0 0 88 30;" xml:space="preserve">
<style type="text/css">
	.st0{fill:#FFFFFF;}
	.st1{fill:#4DC0B5;}
</style>
<path class="st0" d="M18.2,5.7v14.7c0,1-0.2,1.9-0.5,2.8s-0.8,1.5-1.4,2.1s-1.3,1-2.2,1.4c-0.9,0.3-1.8,0.5-2.9,0.5s-2-0.2-2.9-0.5
	s-1.6-0.8-2.2-1.4S5,24,4.7,23.2s-0.5-1.8-0.5-2.8h4.1c0,0.9,0.3,1.6,0.8,2.1s1.2,0.8,2.1,0.8s1.6-0.3,2.1-0.8s0.8-1.2,0.8-2.1V5.7
	H18.2z"/>
<path class="st0" d="M28.7,11.3c0.9,0,1.7,0.2,2.4,0.5s1.4,0.7,1.9,1.3c0.5,0.5,1,1.2,1.3,1.9s0.5,1.6,0.5,2.4V27h-2.9l-0.7-1.5
	c-0.4,0.3-0.8,0.6-1.2,0.8c-0.4,0.2-0.8,0.4-1.4,0.6c-0.5,0.2-1.2,0.3-1.8,0.3c-1.7,0-3-0.4-3.9-1.2c-0.9-0.8-1.4-1.9-1.4-3.2
	c0-0.8,0.2-1.5,0.5-2.1s0.8-1.2,1.5-1.7s1.7-0.8,2.9-1.1c1.2-0.3,2.7-0.4,4.5-0.4c0-0.9-0.2-1.5-0.7-2s-1.1-0.7-1.8-0.7
	c-0.5,0-0.9,0.1-1.2,0.3c-0.3,0.2-0.5,0.4-0.7,0.6c-0.2,0.2-0.3,0.5-0.4,0.8h-3.9c0.1-0.7,0.3-1.4,0.6-2s0.8-1.2,1.3-1.7
	s1.2-0.9,2-1.1C26.9,11.5,27.7,11.3,28.7,11.3z M27.5,24.2c1,0,1.8-0.3,2.5-0.9s0.9-1.4,0.9-2.3v-0.7c-1.2,0-2.1,0.1-2.8,0.2
	c-0.7,0.1-1.2,0.2-1.6,0.4c-0.4,0.2-0.7,0.4-0.8,0.7c-0.1,0.3-0.2,0.6-0.2,0.9c0,0.4,0.2,0.8,0.6,1.2C26.5,24,26.9,24.2,27.5,24.2z"
	/>
<path class="st0" d="M46.6,11.3c0.8,0,1.6,0.2,2.4,0.5c0.7,0.3,1.4,0.7,1.9,1.3s0.9,1.3,1.2,2.1c0.3,0.8,0.5,1.7,0.5,2.7V27h-3.9
	v-8.6c0-1-0.3-1.8-0.9-2.5c-0.6-0.6-1.4-0.9-2.3-0.9s-1.7,0.3-2.3,0.9c-0.6,0.6-0.9,1.4-0.9,2.5V27h-3.9V5.7h3.9V13
	c0.3-0.3,0.6-0.6,1-0.8s0.8-0.4,1.4-0.6C45.2,11.4,45.9,11.3,46.6,11.3z"/>
<rect x="56.1" y="11.5" class="st0" width="3.9" height="15.6"/>
<path class="st0" d="M70.2,27.2c-1,0-1.9-0.2-2.8-0.6s-1.7-0.9-2.3-1.7c-0.7-0.7-1.2-1.6-1.6-2.5c-0.4-1-0.6-2-0.6-3.2
	s0.2-2.2,0.6-3.2c0.4-1,0.9-1.8,1.6-2.5s1.4-1.3,2.3-1.7s1.8-0.6,2.8-0.6c0.6,0,1.2,0.1,1.7,0.3s0.9,0.3,1.3,0.5s0.8,0.5,1.1,0.7v-7
	h3.9V27h-2.9l-0.7-1.5c-0.4,0.3-0.8,0.6-1.2,0.8C73,26.6,72.5,26.8,72,27C71.5,27.1,70.8,27.2,70.2,27.2z M74.6,19.3
	c0-1.3-0.4-2.3-1.1-3.1c-0.7-0.8-1.7-1.2-2.8-1.2c-1.1,0-2,0.4-2.8,1.2c-0.7,0.8-1.1,1.8-1.1,3.1c0,1.3,0.4,2.3,1.1,3.1
	c0.7,0.8,1.7,1.2,2.8,1.2c1.1,0,2-0.4,2.8-1.2C74.2,21.6,74.6,20.6,74.6,19.3z"/>
<circle class="st1" cx="58" cy="7.8" r="2.3"/>
</svg>
