<?xml version="1.0" encoding="utf-8"?>
<!-- Generator: Adobe Illustrator 24.3.0, SVG Export Plug-In . SVG Version: 6.00 Build 0)  -->
<svg version="1.1" id="Layer_1" xmlns="http://www.w3.org/2000/svg" xmlns:xlink="http://www.w3.org/1999/xlink" x="0px" y="0px"
	 viewBox="0 0 801.2 717" style="enable-background:new 0 0 801.2 717;" xml:space="preserve">
<style type="text/css">
	.st0{display:none;}
	.st1{display:inline;}
	.st2{fill:#0019FF;}
	.st3{fill:#1563FF;}
	.st4{display:inline;fill:none;stroke:#FFFFFF;stroke-width:4;stroke-miterlimit:9.9999;}
	.st5{display:inline;fill:none;stroke:#FFFFFF;stroke-width:4;stroke-miterlimit:10;}
	.st6{display:inline;fill:#0019FF;}
	.st7{display:inline;fill:#1563FF;}
	.st8{opacity:0.3;}
	.st9{fill:#061845;}
	.st10{fill:#2D3748;}
	.st11{fill:none;stroke:#4DC0B5;stroke-width:4;stroke-miterlimit:9.9999;}
	.st12{fill:none;stroke:#4DC0B5;stroke-width:4;stroke-miterlimit:10;}
	.st13{fill:#A3A3A3;}
	.st14{clip-path:url(#SVGID_2_);}
	.st15{font-family:'ArialMT';}
	.st16{font-size:66px;}
	.st17{font-size:28px;}
</style>
<g id="Assets" class="st0">
	<g class="st1">
		<rect x="-662.8" class="st2" width="64.9" height="72"/>
	</g>
	<g class="st1">
		<rect x="-662.8" y="81" class="st3" width="64.9" height="72"/>
	</g>
	<g class="st1">
		<g>
			<g>
				<circle class="st2" cx="-1025.8" cy="6.8" r="5.5"/>
			</g>
			<g>
				<circle class="st2" cx="-976.8" cy="6.8" r="5.5"/>
			</g>
			<g>
				<circle class="st2" cx="-927.8" cy="6.8" r="5.5"/>
			</g>
			<g>
				<circle class="st2" cx="-878.8" cy="6.8" r="5.5"/>
			</g>
			<g>
				<circle class="st2" cx="-829.8" cy="6.8" r="5.5"/>
			</g>
			<g>
				<circle class="st2" cx="-780.8" cy="6.8" r="5.5"/>
			</g>
		</g>
		<g>
			<g>
				<circle class="st2" cx="-1025.8" cy="48.5" r="5.5"/>
			</g>
			<g>
				<circle class="st2" cx="-976.8" cy="48.5" r="5.5"/>
			</g>
			<g>
				<circle class="st2" cx="-927.8" cy="48.5" r="5.5"/>
			</g>
			<g>
				<circle class="st2" cx="-878.8" cy="48.5" r="5.5"/>
			</g>
			<g>
				<circle class="st2" cx="-829.8" cy="48.5" r="5.5"/>
			</g>
			<g>
				<circle class="st2" cx="-780.8" cy="48.5" r="5.5"/>
			</g>
		</g>
		<g>
			<g>
				<circle class="st2" cx="-1025.8" cy="89.8" r="5.5"/>
			</g>
			<g>
				<circle class="st2" cx="-976.8" cy="89.8" r="5.5"/>
			</g>
			<g>
				<circle class="st2" cx="-927.8" cy="89.8" r="5.5"/>
			</g>
			<g>
				<circle class="st2" cx="-878.8" cy="89.8" r="5.5"/>
			</g>
			<g>
				<circle class="st2" cx="-829.8" cy="89.8" r="5.5"/>
			</g>
			<g>
				<circle class="st2" cx="-780.8" cy="89.8" r="5.5"/>
			</g>
		</g>
		<g>
			<g>
				<circle class="st2" cx="-1025.8" cy="131.5" r="5.5"/>
			</g>
			<g>
				<circle class="st2" cx="-976.8" cy="131.5" r="5.5"/>
			</g>
			<g>
				<circle class="st2" cx="-927.8" cy="131.5" r="5.5"/>
			</g>
			<g>
				<circle class="st2" cx="-878.8" cy="131.5" r="5.5"/>
			</g>
			<g>
				<circle class="st2" cx="-829.8" cy="131.5" r="5.5"/>
			</g>
			<g>
				<circle class="st2" cx="-780.8" cy="131.5" r="5.5"/>
			</g>
		</g>
		<g>
			<g>
				<circle class="st2" cx="-1025.8" cy="172.8" r="5.5"/>
			</g>
			<g>
				<circle class="st2" cx="-976.8" cy="172.8" r="5.5"/>
			</g>
			<g>
				<circle class="st2" cx="-927.8" cy="172.8" r="5.5"/>
			</g>
			<g>
				<circle class="st2" cx="-878.8" cy="172.8" r="5.5"/>
			</g>
			<g>
				<circle class="st2" cx="-829.8" cy="172.8" r="5.5"/>
			</g>
			<g>
				<circle class="st2" cx="-780.8" cy="172.8" r="5.5"/>
			</g>
		</g>
		<g>
			<g>
				<circle class="st2" cx="-1025.8" cy="214.5" r="5.5"/>
			</g>
			<g>
				<circle class="st2" cx="-976.8" cy="214.5" r="5.5"/>
			</g>
			<g>
				<circle class="st2" cx="-927.8" cy="214.5" r="5.5"/>
			</g>
			<g>
				<circle class="st2" cx="-878.8" cy="214.5" r="5.5"/>
			</g>
			<g>
				<circle class="st2" cx="-829.8" cy="214.5" r="5.5"/>
			</g>
			<g>
				<circle class="st2" cx="-780.8" cy="214.5" r="5.5"/>
			</g>
		</g>
		<g>
			<g>
				<circle class="st2" cx="-1025.8" cy="255.8" r="5.5"/>
			</g>
			<g>
				<circle class="st2" cx="-976.8" cy="255.8" r="5.5"/>
			</g>
			<g>
				<circle class="st2" cx="-927.8" cy="255.8" r="5.5"/>
			</g>
			<g>
				<circle class="st2" cx="-878.8" cy="255.8" r="5.5"/>
			</g>
			<g>
				<circle class="st2" cx="-829.8" cy="255.8" r="5.5"/>
			</g>
			<g>
				<circle class="st2" cx="-780.8" cy="255.8" r="5.5"/>
			</g>
		</g>
		<g>
			<g>
				<circle class="st2" cx="-1025.8" cy="297.5" r="5.5"/>
			</g>
			<g>
				<circle class="st2" cx="-976.8" cy="297.5" r="5.5"/>
			</g>
			<g>
				<circle class="st2" cx="-927.8" cy="297.5" r="5.5"/>
			</g>
			<g>
				<circle class="st2" cx="-878.8" cy="297.5" r="5.5"/>
			</g>
			<g>
				<circle class="st2" cx="-829.8" cy="297.5" r="5.5"/>
			</g>
			<g>
				<circle class="st2" cx="-780.8" cy="297.5" r="5.5"/>
			</g>
		</g>
	</g>
	
		<rect x="-1024.1" y="370.5" transform="matrix(0.7071 -0.7071 0.7071 0.7071 -567.4985 -602.2122)" class="st4" width="26.9" height="26.9"/>
	<circle class="st5" cx="-947.3" cy="384" r="19"/>
	<path class="st5" d="M-909.8,393.5c0-10.5,8.5-19,19-19s19,8.5,19,19"/>
	<path class="st5" d="M-834.5,393.7c-0.2-0.9-0.3-1.8-0.3-2.7c0-7.7,6.3-14,14-14c0.9,0,1.8,0.1,2.7,0.3"/>
</g>
<g class="st0">
	<path class="st6" d="M878.7,729.4c-28.4,0-55.2-11.1-75.3-31.2L333.8,228.6c-20.1-20.1-31.2-46.8-31.2-75.3s11.1-55.2,31.2-75.3
		l469.6-469.6c20.1-20.1,46.8-31.2,75.3-31.2c28.4,0,55.2,11.1,75.3,31.2L1423.6,78c20.1,20.1,31.2,46.8,31.2,75.3
		c0,28.4-11.1,55.2-31.2,75.3L954,698.3C933.9,718.4,907.1,729.4,878.7,729.4z"/>
	<path class="st7" d="M878.7-422.2c28.3,0,54.9,11,74.9,31l469.6,469.7c20,20,31,46.6,31,74.9s-11,54.9-31,74.9L953.6,697.9
		c-20,20-46.6,31-74.9,31s-54.9-11-74.9-31L334.2,228.3c-20-20-31-46.6-31-74.9s11-54.9,31-74.9l469.6-469.6
		C823.8-411.2,850.4-422.2,878.7-422.2 M878.7-423.2c-27.4,0-54.7,10.4-75.6,31.3L333.5,77.7c-41.8,41.8-41.8,109.5,0,151.3
		l469.6,469.6c20.9,20.9,48.3,31.3,75.6,31.3s54.7-10.4,75.6-31.3L1423.9,229c41.8-41.8,41.8-109.5,0-151.3L954.3-391.9
		C933.4-412.8,906.1-423.2,878.7-423.2L878.7-423.2z"/>
</g>
<g class="st8">
	<g>
		<g>
			<circle class="st9" cx="44.9" cy="-87" r="4.3"/>
		</g>
		<g>
			<circle class="st9" cx="83.5" cy="-87" r="4.3"/>
		</g>
		<g>
			<circle class="st9" cx="122.1" cy="-87" r="4.3"/>
		</g>
		<g>
			<circle class="st9" cx="160.6" cy="-87" r="4.3"/>
		</g>
		<g>
			<circle class="st9" cx="199.2" cy="-87" r="4.3"/>
		</g>
		<g>
			<circle class="st9" cx="237.8" cy="-87" r="4.3"/>
		</g>
	</g>
	<g>
		<g>
			<circle class="st9" cx="44.9" cy="-54.2" r="4.3"/>
		</g>
		<g>
			<circle class="st9" cx="83.5" cy="-54.2" r="4.3"/>
		</g>
		<g>
			<circle class="st9" cx="122.1" cy="-54.2" r="4.3"/>
		</g>
		<g>
			<circle class="st9" cx="160.6" cy="-54.2" r="4.3"/>
		</g>
		<g>
			<circle class="st9" cx="199.2" cy="-54.2" r="4.3"/>
		</g>
		<g>
			<circle class="st9" cx="237.8" cy="-54.2" r="4.3"/>
		</g>
	</g>
	<g>
		<g>
			<circle class="st9" cx="44.9" cy="-21.7" r="4.3"/>
		</g>
		<g>
			<circle class="st9" cx="83.5" cy="-21.7" r="4.3"/>
		</g>
		<g>
			<circle class="st9" cx="122.1" cy="-21.7" r="4.3"/>
		</g>
		<g>
			<circle class="st9" cx="160.6" cy="-21.7" r="4.3"/>
		</g>
		<g>
			<circle class="st9" cx="199.2" cy="-21.7" r="4.3"/>
		</g>
		<g>
			<circle class="st9" cx="237.8" cy="-21.7" r="4.3"/>
		</g>
	</g>
	<g>
		<g>
			<circle class="st9" cx="44.9" cy="11.1" r="4.3"/>
		</g>
		<g>
			<circle class="st9" cx="83.5" cy="11.1" r="4.3"/>
		</g>
		<g>
			<circle class="st9" cx="122.1" cy="11.1" r="4.3"/>
		</g>
		<g>
			<circle class="st9" cx="160.6" cy="11.1" r="4.3"/>
		</g>
		<g>
			<circle class="st9" cx="199.2" cy="11.1" r="4.3"/>
		</g>
		<g>
			<circle class="st9" cx="237.8" cy="11.1" r="4.3"/>
		</g>
	</g>
	<g>
		<g>
			<circle class="st9" cx="44.9" cy="43.6" r="4.3"/>
		</g>
		<g>
			<circle class="st9" cx="83.5" cy="43.6" r="4.3"/>
		</g>
		<g>
			<circle class="st9" cx="122.1" cy="43.6" r="4.3"/>
		</g>
		<g>
			<circle class="st9" cx="160.6" cy="43.6" r="4.3"/>
		</g>
		<g>
			<circle class="st9" cx="199.2" cy="43.6" r="4.3"/>
		</g>
		<g>
			<circle class="st9" cx="237.8" cy="43.6" r="4.3"/>
		</g>
	</g>
	<g>
		<g>
			<circle class="st9" cx="44.9" cy="76.4" r="4.3"/>
		</g>
		<g>
			<circle class="st9" cx="83.5" cy="76.4" r="4.3"/>
		</g>
		<g>
			<circle class="st9" cx="122.1" cy="76.4" r="4.3"/>
		</g>
		<g>
			<circle class="st9" cx="160.6" cy="76.4" r="4.3"/>
		</g>
		<g>
			<circle class="st9" cx="199.2" cy="76.4" r="4.3"/>
		</g>
		<g>
			<circle class="st9" cx="237.8" cy="76.4" r="4.3"/>
		</g>
	</g>
	<g>
		<g>
			<circle class="st9" cx="44.9" cy="109" r="4.3"/>
		</g>
		<g>
			<circle class="st9" cx="83.5" cy="109" r="4.3"/>
		</g>
		<g>
			<circle class="st9" cx="122.1" cy="109" r="4.3"/>
		</g>
		<g>
			<circle class="st9" cx="160.6" cy="109" r="4.3"/>
		</g>
		<g>
			<circle class="st9" cx="199.2" cy="109" r="4.3"/>
		</g>
		<g>
			<circle class="st9" cx="237.8" cy="109" r="4.3"/>
		</g>
	</g>
	<g>
		<g>
			<circle class="st9" cx="44.9" cy="141.8" r="4.3"/>
		</g>
		<g>
			<circle class="st9" cx="83.5" cy="141.8" r="4.3"/>
		</g>
		<g>
			<circle class="st9" cx="122.1" cy="141.8" r="4.3"/>
		</g>
		<g>
			<circle class="st9" cx="160.6" cy="141.8" r="4.3"/>
		</g>
		<g>
			<circle class="st9" cx="199.2" cy="141.8" r="4.3"/>
		</g>
		<g>
			<circle class="st9" cx="237.8" cy="141.8" r="4.3"/>
		</g>
	</g>
</g>
<g>
	<g>
		<g>
			<circle class="st10" cx="580" cy="449.9" r="4.3"/>
		</g>
		<g>
			<circle class="st10" cx="618.6" cy="449.9" r="4.3"/>
		</g>
		<g>
			<circle class="st10" cx="657.2" cy="449.9" r="4.3"/>
		</g>
		<g>
			<circle class="st10" cx="695.7" cy="449.9" r="4.3"/>
		</g>
		<g>
			<circle class="st10" cx="734.3" cy="449.9" r="4.3"/>
		</g>
		<g>
			<circle class="st10" cx="772.9" cy="449.9" r="4.3"/>
		</g>
	</g>
	<g>
		<g>
			<circle class="st10" cx="580" cy="482.7" r="4.3"/>
		</g>
		<g>
			<circle class="st10" cx="618.6" cy="482.7" r="4.3"/>
		</g>
		<g>
			<circle class="st10" cx="657.2" cy="482.7" r="4.3"/>
		</g>
		<g>
			<circle class="st10" cx="695.7" cy="482.7" r="4.3"/>
		</g>
		<g>
			<circle class="st10" cx="734.3" cy="482.7" r="4.3"/>
		</g>
		<g>
			<circle class="st10" cx="772.9" cy="482.7" r="4.3"/>
		</g>
	</g>
	<g>
		<g>
			<circle class="st10" cx="580" cy="515.2" r="4.3"/>
		</g>
		<g>
			<circle class="st10" cx="618.6" cy="515.2" r="4.3"/>
		</g>
		<g>
			<circle class="st10" cx="657.2" cy="515.2" r="4.3"/>
		</g>
		<g>
			<circle class="st10" cx="695.7" cy="515.2" r="4.3"/>
		</g>
		<g>
			<circle class="st10" cx="734.3" cy="515.2" r="4.3"/>
		</g>
		<g>
			<circle class="st10" cx="772.9" cy="515.2" r="4.3"/>
		</g>
	</g>
	<g>
		<g>
			<circle class="st10" cx="580" cy="548" r="4.3"/>
		</g>
		<g>
			<circle class="st10" cx="618.6" cy="548" r="4.3"/>
		</g>
		<g>
			<circle class="st10" cx="657.2" cy="548" r="4.3"/>
		</g>
		<g>
			<circle class="st10" cx="695.7" cy="548" r="4.3"/>
		</g>
		<g>
			<circle class="st10" cx="734.3" cy="548" r="4.3"/>
		</g>
		<g>
			<circle class="st10" cx="772.9" cy="548" r="4.3"/>
		</g>
	</g>
	<g>
		<g>
			<circle class="st10" cx="580" cy="580.5" r="4.3"/>
		</g>
		<g>
			<circle class="st10" cx="618.6" cy="580.5" r="4.3"/>
		</g>
		<g>
			<circle class="st10" cx="657.2" cy="580.5" r="4.3"/>
		</g>
		<g>
			<circle class="st10" cx="695.7" cy="580.5" r="4.3"/>
		</g>
		<g>
			<circle class="st10" cx="734.3" cy="580.5" r="4.3"/>
		</g>
		<g>
			<circle class="st10" cx="772.9" cy="580.5" r="4.3"/>
		</g>
	</g>
	<g>
		<g>
			<circle class="st10" cx="580" cy="613.3" r="4.3"/>
		</g>
		<g>
			<circle class="st10" cx="618.6" cy="613.3" r="4.3"/>
		</g>
		<g>
			<circle class="st10" cx="657.2" cy="613.3" r="4.3"/>
		</g>
		<g>
			<circle class="st10" cx="695.7" cy="613.3" r="4.3"/>
		</g>
		<g>
			<circle class="st10" cx="734.3" cy="613.3" r="4.3"/>
		</g>
		<g>
			<circle class="st10" cx="772.9" cy="613.3" r="4.3"/>
		</g>
	</g>
	<g>
		<g>
			<circle class="st10" cx="580" cy="645.9" r="4.3"/>
		</g>
		<g>
			<circle class="st10" cx="618.6" cy="645.9" r="4.3"/>
		</g>
		<g>
			<circle class="st10" cx="657.2" cy="645.9" r="4.3"/>
		</g>
		<g>
			<circle class="st10" cx="695.7" cy="645.9" r="4.3"/>
		</g>
		<g>
			<circle class="st10" cx="734.3" cy="645.9" r="4.3"/>
		</g>
		<g>
			<circle class="st10" cx="772.9" cy="645.9" r="4.3"/>
		</g>
	</g>
	<g>
		<g>
			<circle class="st10" cx="580" cy="678.7" r="4.3"/>
		</g>
		<g>
			<circle class="st10" cx="618.6" cy="678.7" r="4.3"/>
		</g>
		<g>
			<circle class="st10" cx="657.2" cy="678.7" r="4.3"/>
		</g>
		<g>
			<circle class="st10" cx="695.7" cy="678.7" r="4.3"/>
		</g>
		<g>
			<circle class="st10" cx="734.3" cy="678.7" r="4.3"/>
		</g>
		<g>
			<circle class="st10" cx="772.9" cy="678.7" r="4.3"/>
		</g>
	</g>
</g>
<g>
	
		<rect x="732.8" y="101.6" transform="matrix(0.7071 -0.7071 0.7071 0.7071 137.236 561.3658)" class="st11" width="26.9" height="26.9"/>
	<polyline class="st12" points="650.5,32 661.5,21 680.6,40 669.5,51 	"/>
	<circle class="st12" cx="636.2" cy="214" r="19"/>
	<path class="st12" d="M442.2,128.5c0-10.5,8.5-19,19-19s19,8.5,19,19"/>
	<path class="st12" d="M738,363.3c-0.2-0.9-0.3-1.8-0.3-2.7c0-7.7,6.3-14,14-14c0.9,0,1.9,0.1,2.7,0.3"/>
</g>
<g>
	
		<rect x="29.8" y="267.9" transform="matrix(0.7071 -0.7071 0.7071 0.7071 -186.2845 112.9673)" class="st11" width="26.9" height="26.9"/>
	<polyline class="st12" points="119.9,217.4 108.9,206.4 127.9,187.4 138.9,198.4 	"/>
	<circle class="st12" cx="153.2" cy="380.4" r="19"/>
	<path class="st12" d="M309.2,294.9c0-10.5,8.5-19,19-19s19,8.5,19,19"/>
	<path class="st12" d="M35,513.2c0.8-0.2,1.8-0.3,2.7-0.3c7.7,0,14,6.3,14,14c0,0.9-0.1,1.8-0.3,2.7"/>
</g>
<g id="Temp" class="st0">
	<g id="Image" class="st1">
		<g>
			<circle class="st13" cx="410.7" cy="422.5" r="248.5"/>
		</g>
		<g>
			<g>
				<g>
					<defs>
						<ellipse id="SVGID_1_" cx="410.7" cy="376.5" rx="248.5" ry="294.5"/>
					</defs>
					<clipPath id="SVGID_2_">
						<use xlink:href="#SVGID_1_"  style="overflow:visible;"/>
					</clipPath>
					<g class="st14">
					</g>
				</g>
			</g>
		</g>
	</g>
	<g id="Content" class="st1">
		<text transform="matrix(1 0 0 1 -476.148 308.5977)" class="st15 st16">Creating Kickasss </text>
		<text transform="matrix(1 0 0 1 -476.148 387.7977)" class="st15 st16">Website for Businesses</text>
		<text transform="matrix(1 0 0 1 -476.148 466.9977)" class="st15 st16">Once at a Time.</text>
		<g id="Button_Group">
			<g>
				<g>
					<path class="st2" d="M-249.8,588h-216c-6.6,0-12-5.4-12-12v-48c0-6.6,5.4-12,12-12h216c6.6,0,12,5.4,12,12v48
						C-237.8,582.6-243.2,588-249.8,588z"/>
				</g>
				<text transform="matrix(1 0 0 1 -446.4312 563.4238)" class="st15" style="fill:#FFFFFF; font-size:38px;">See my work</text>
			</g>
			<g>
				<g>
					<rect x="-209.8" y="576" class="st2" width="175" height="3"/>
				</g>
				<text transform="matrix(1 0 0 1 -209.7642 563)" class="st15" style="font-size:38px;">Contact me</text>
			</g>
		</g>
		<g id="Name">
			<text transform="matrix(1 0 0 1 -369.6446 229.1079)" class="st2 st15" style="font-size:48px;">Jahid</text>
			<text transform="matrix(1 0 0 1 -475.7642 231.6567)" class="st15" style="font-size:38px;">Hi, I’m</text>
		</g>
	</g>
	<g id="Menu" class="st1">
		<g>
			<text transform="matrix(1 0 0 1 -338.1495 64.9991)" class="st15 st17">About</text>
			<text transform="matrix(1 0 0 1 -186.4502 64.9991)" class="st15 st17">Portfolio</text>
			<text transform="matrix(1 0 0 1 -20.1495 64.9991)" class="st15 st17">Contact</text>
		</g>
		<g>
			<g>
				<path class="st2" d="M-425.8,63.3l-26,26c-3.4,3.4-8.8,3.4-12.2,0l-26-26c-3.4-3.4-3.4-8.8,0-12.2l26-26c3.4-3.4,8.8-3.4,12.2,0
					l26,26C-422.4,54.4-422.4,59.9-425.8,63.3z"/>
			</g>
			<text transform="matrix(1 0 0 1 -475.9678 68.3182)" class="st15" style="fill:#FFFFFF; font-size:39.8519px;">JJ</text>
		</g>
	</g>
</g>
</svg>
